<?xml version='1.0' encoding='utf-8'?>
<svg width="364.09mm" height="442.857838mm" viewBox="-0.045 -215.428919 364.09 442.857838" version="1.1" xmlns="http://www.w3.org/2000/svg">
  <g transform="scale(1,-1)" stroke-linecap="round">
    <g fill="none" stroke="rgb(0,0,0)" stroke-width="0.09">
      <path d="M 73.19873,32.69196 L 141.708389,32.69196 L 162.972055,0.0 L 186.527945,13.6 L 168.847711,48.360854 L 203.10254,107.69196 L 168.847711,167.023065 L 186.527945,201.783919 L 162.972055,215.383919 L 141.708389,182.69196 L 73.19873,182.69196 L 38.9439,123.360854 L 0.0,121.29196 L 0.0,94.09196 L 38.9439,92.023065 L 73.19873,32.69196 M 119.2,107.69196 A 2.7000000000000024,2.7000000000000024 0.0 0,0 113.8,107.69196 A 2.7000000000000024,2.7000000000000024 0.0 0,0 119.2,107.69196" />
      <path d="M 315.10254,86.60254 L 265.10254,115.470054 L 215.10254,86.60254 L 215.10254,28.867513 L 265.10254,0.0 L 315.10254,28.867513 L 315.10254,86.60254 M 267.80254,57.735027 A 2.700000000000017,2.700000000000017 0.0 0,0 262.40254,57.735027 A 2.700000000000017,2.700000000000017 0.0 0,0 267.80254,57.735027" />
      <path d="M 0.0,-227.383919 L 86.0,-227.383919 L 86.0,-177.383919 L 68.0,-147.383919 L 0.0,-147.383919 L 0.0,-227.383919 M 66.2,-187.383919 A 2.200000000000003,2.200000000000003 0.0 0,0 61.8,-187.383919 A 2.200000000000003,2.200000000000003 0.0 0,0 66.2,-187.383919" />
      <path d="M 98.0,-177.383919 L 98.0,-227.383919 L 170.0,-227.383919 L 170.0,-177.383919 L 98.0,-177.383919" />
      <path d="M 182.0,-147.383919 L 182.0,-227.383919 L 254.0,-227.383919 L 254.0,-147.383919 L 182.0,-147.383919" />
      <path d="M 266.0,-197.383919 L 266.0,-227.383919 L 312.0,-227.383919 L 312.0,-197.383919 L 266.0,-197.383919 M 291.2,-212.383919 A 2.2,2.2 0.0 0,0 286.8,-212.383919 A 2.2,2.2 0.0 0,0 291.2,-212.383919" />
      <path d="M 364.0,-207.383919 A 20.0,20.0 0.0 0,1 324.0,-207.383919 A 20.0,20.0 0.0 0,1 364.0,-207.383919 M 340.65,-218.642249 A 3.15,3.15 0.0 0,0 334.35,-218.642249 A 3.15,3.15 0.0 0,0 340.65,-218.642249 M 353.65,-218.642249 A 3.15,3.15 0.0 0,0 347.35,-218.642249 A 3.15,3.15 0.0 0,0 353.65,-218.642249 M 347.0,-207.383919 A 3.0,3.0 0.0 0,0 341.0,-207.383919 A 3.0,3.0 0.0 0,0 347.0,-207.383919 M 360.15,-207.383919 A 3.15,3.15 0.0 0,0 353.85,-207.383919 A 3.15,3.15 0.0 0,0 360.15,-207.383919 M 334.15,-207.383919 A 3.15,3.15 0.0 0,0 327.85,-207.383919 A 3.15,3.15 0.0 0,0 334.15,-207.383919 M 340.65,-196.125589 A 3.15,3.15 0.0 0,0 334.35,-196.125589 A 3.15,3.15 0.0 0,0 340.65,-196.125589 M 353.65,-196.125589 A 3.15,3.15 0.0 0,0 347.35,-196.125589 A 3.15,3.15 0.0 0,0 353.65,-196.125589" />
    </g>
  </g>
</svg>